<svg aria-label="ARD.de" role="img" viewBox="0 0 569.6 110.3"
  xmlns="http://www.w3.org/2000/svg">
  <title>ARD.de</title>
  <path fill="#ffffff" d="M547.314 52.218v-37.2l-37.2 13.2v9.6l12.6-4.2v28.2c-.6-.6 24.6-9.6 24.6-9.6zm-15-46.8c-17.4 0-31.8 14.4-31.8 31.8s14.4 31.8 31.8 31.8 31.8-14.4 31.8-31.8-14.4-31.8-31.8-31.8m0-5.4c20.4 0 37.2 16.8 37.2 37.2 0 20.4-16.8 37.2-37.2 37.2s-37.2-16.8-37.2-37.2c0-20.4 16.8-37.2 37.2-37.2m-479.4 72.6h-20.4l9.6-33.6 10.8 33.6zm135.6 34.8l-1.2-10.2c-12.6 2.4-9-31.8-24-33.6 10.8-3.6 18.6-11.4 18.6-24 0-16.8-12.6-25.2-34.2-25.2-13.2 0-30.6.6-33.6.6h-10.8v9.6c3.6 1.8 7.8 4.8 11.4 6v63.6c-4.2 1.2-7.8 3.6-11.4 6v9h42.6v-9c-2.4-1.8-4.8-4.2-7.8-6v-22.8h4.2c14.4 0 9.6 39 30.6 39 4.8 0 10.8-.6 15.6-3m-30.6-64.2c0 9-4.8 15-13.8 15h-6v-28.8c1.2 0 3.6-.6 5.4-.6 10.8-.6 14.4 6.6 14.4 14.4m138 16.8c0-32.4-16.8-45-46.2-45-12.6 0-28.2.6-35.4.6h-11.4v9c3.6 1.8 7.8 4.8 11.4 6v63.6c-4.2 1.2-7.8 3.6-11.4 6v9h11.4c4.2 0 18.6.6 28.8.6 30-.6 52.8-17.4 52.8-49.8m-24.6 2.4c0 22.2-9.6 32.4-22.2 32.4-5.4 0-9-.6-12-1.2v-64.8c2.4 0 5.4-.6 8.4-.6 21 0 25.8 16.2 25.8 34.2m54 38.4c0-4.8-4.2-9-9-9s-9 4.2-9 9 4.2 9 9 9c4.8.6 9-3.6 9-9m85.2 6v-5.4c-3.6-.6-7.2-1.8-10.2-2.4v-91.8c-9 0-19.2.6-25.8 1.8v6c3.6.6 7.2 1.8 10.8 3v21.6c-3.6-.6-7.2-.6-10.8-.6-21.6 0-37.2 13.2-37.2 39 0 19.2 9.6 32.4 25.8 32.4 11.4 0 19.8-6.6 22.8-15-.6 5.4-.6 9.6-.6 13.8 10.2.6 18.6-.6 25.2-2.4m-25.2-28.8c0 12-7.2 21.6-15.6 21.6-10.2 0-16.2-10.2-16.2-24.6 0-18 7.2-27.6 18.6-27.6 5.4 0 9.6 1.2 13.2 3.6v27zm94.2-9.6c0-18-9-29.4-28.8-29.4-20.4 0-31.2 15-31.2 36 0 23.4 12 35.4 31.8 35.4 10.8 0 20.4-3.6 27.6-9l-2.4-7.2c-5.4 3-13.2 4.8-19.8 4.8-13.8 0-21-7.8-21-24v-1.8h43.8v-4.8m-16.2-2.4h-27.6c.6-10.8 5.4-19.2 14.4-19.2s13.8 8.4 13.2 19.2m-371.4 42.6v-8.4c-1.8-2.4-4.2-4.2-6.6-6l-27-78.6h-22.8l-27.6 78.6c-3 1.2-6 3.6-7.8 5.4v9h34.2v-8.4c-2.4-2.4-4.8-4.2-7.8-5.4l2.4-8.4h28.2l3 8.4c-3 1.2-6 3.6-8.4 5.4v9h40.2z"></path>
</svg>
