<?xml version="1.0" encoding="iso-8859-1"?>
<!-- Generator: Adobe Illustrator 16.0.3, SVG Export Plug-In . SVG Version: 6.00 Build 0)  -->
<!DOCTYPE svg PUBLIC "-//W3C//DTD SVG 1.1//EN" "http://www.w3.org/Graphics/SVG/1.1/DTD/svg11.dtd">
<svg version="1.1" id="Ebene_1" xmlns="http://www.w3.org/2000/svg" xmlns:xlink="http://www.w3.org/1999/xlink" x="0px" y="0px"
	 width="354.3px" height="144.9px" viewBox="0 0 354.3 144.9" enable-background="new 0 0 354.3 144.9" xml:space="preserve">
<path fill="#0082C6" d="M133.3,74.5c16.4-5.7,28.2-18.8,28.2-38.2c0-4.9-2.5-16.7-11.4-24.3c-5.9-5-14.4-11-42-11.7
	c-5.7-0.1-23,0.5-23,0.5v1c4.9,3.7,10.2,9.9,12.7,17.1c2.6-0.1,6.6-0.3,10.5-0.1c11.1,0.6,15.9,2.7,20.9,6.6
	c5,3.9,7.7,10.7,7.7,16.8c0,8.4-4,17-16.1,22c-9.8,4-21.6,4.9-21.6,4.9l0,3.1c0,0,7.1,3.4,14.2,12.7c6.1,8.1,41.5,60.2,41.5,60.2
	H184C184,144.9,136.8,79,133.3,74.5z"/>
<path fill="#0082C6" d="M69,67.1c11.2-6.6,18.4-16.4,18.4-31C87.5,20.6,78.3,0,39.6,0C20.8,0,0,0.7,0,0.7v144.2h33
	c42,0,64.2-15.5,64.2-44.8C97.2,82.7,86.3,71.1,69,67.1z M39.8,124.8c0,0-13.7,0-16.4,0V18.6c0.2,0,7.3-0.1,11.8-0.1
	c18.3,0,28.4,9.5,28.7,22.4c0.2,7.9-2.2,15.4-10.2,21C47.2,66.4,38,67.8,38,67.8v3.4c0,0,12.7,1.9,19.1,4.9
	c12,5.6,15.5,14.3,15.6,25.5C72.9,119.4,55.7,124.8,39.8,124.8z"/>
<path d="M235.3,43.1c0,5.4-0.8,10.2-2.5,14.2c-1.7,4-4.1,7.3-7.1,10s-6.8,4.6-11,5.9c-4.3,1.3-9,1.9-14.1,1.9
	c-2.5,0-5.3-0.1-8.4-0.3c-3-0.2-5.8-0.6-8.3-1.2V12.7c2.5-0.6,5.2-1,8.3-1.2c3-0.2,5.8-0.3,8.4-0.3c5.1,0,9.8,0.6,14.1,1.9
	c4.3,1.3,8,3.3,11,5.9s5.5,5.9,7.1,10C234.4,33,235.3,37.7,235.3,43.1z M201.2,67.4c8.3,0,14.5-2.1,18.6-6.4
	c4.1-4.3,6.2-10.2,6.2-17.9c0-7.7-2.1-13.6-6.2-17.9c-4.1-4.3-10.3-6.4-18.6-6.4c-2.5,0-4.4,0-5.7,0.1c-1.4,0.1-2.3,0.1-2.9,0.2v48
	c0.5,0.1,1.5,0.1,2.9,0.2C196.8,67.3,198.7,67.4,201.2,67.4z"/>
<path d="M258.5,26.3c3.4,0,6.2,0.4,8.6,1.3c2.3,0.9,4.2,2.1,5.6,3.7c1.4,1.6,2.4,3.5,3,5.7c0.6,2.2,0.9,4.6,0.9,7.3v29.4
	c-0.7,0.1-1.7,0.3-3,0.5c-1.3,0.2-2.8,0.4-4.4,0.6c-1.6,0.2-3.4,0.3-5.3,0.5c-1.9,0.1-3.8,0.2-5.7,0.2c-2.7,0-5.1-0.3-7.3-0.8
	c-2.2-0.5-4.2-1.4-5.8-2.6c-1.6-1.2-2.9-2.7-3.8-4.7c-0.9-1.9-1.4-4.3-1.4-7c0-2.6,0.5-4.8,1.6-6.7c1.1-1.9,2.5-3.4,4.3-4.5
	c1.8-1.1,3.9-2,6.3-2.5c2.4-0.5,4.9-0.8,7.6-0.8c0.8,0,1.7,0,2.6,0.1c0.9,0.1,1.8,0.2,2.6,0.4c0.8,0.2,1.5,0.3,2.1,0.4
	c0.6,0.1,1,0.2,1.3,0.3v-2.4c0-1.4-0.2-2.8-0.5-4.1c-0.3-1.4-0.8-2.6-1.6-3.6c-0.8-1.1-1.9-1.9-3.2-2.5c-1.4-0.6-3.1-0.9-5.3-0.9
	c-2.8,0-5.2,0.2-7.3,0.6c-2.1,0.4-3.6,0.8-4.7,1.2l-1-7c1.1-0.5,2.9-1,5.4-1.4S255.5,26.3,258.5,26.3z M259.2,68.5
	c2,0,3.8,0,5.3-0.1c1.5-0.1,2.8-0.3,3.8-0.5v-14c-0.6-0.3-1.6-0.6-2.9-0.8c-1.4-0.2-3-0.3-4.9-0.3c-1.3,0-2.6,0.1-4,0.3
	c-1.4,0.2-2.7,0.6-3.9,1.1c-1.2,0.6-2.2,1.4-2.9,2.4s-1.2,2.3-1.2,3.9c0,3,1,5.1,2.9,6.3C253.3,67.9,255.9,68.5,259.2,68.5z"/>
<path d="M295.2,27.5H313v7.1h-17.8v21.7c0,2.4,0.2,4.3,0.5,5.8c0.4,1.5,0.9,2.7,1.6,3.6c0.7,0.9,1.6,1.5,2.7,1.9
	c1.1,0.4,2.4,0.5,3.8,0.5c2.5,0,4.6-0.3,6.1-0.9c1.5-0.6,2.6-1,3.2-1.2l1.6,7c-0.8,0.4-2.3,1-4.4,1.6c-2.1,0.6-4.5,1-7.2,1
	c-3.2,0-5.8-0.4-7.9-1.2s-3.8-2-5-3.7c-1.3-1.6-2.2-3.6-2.7-6c-0.5-2.4-0.8-5.1-0.8-8.3v-42l8.4-1.4V27.5z"/>
<path d="M336.2,26.3c3.4,0,6.2,0.4,8.6,1.3c2.3,0.9,4.2,2.1,5.6,3.7c1.4,1.6,2.4,3.5,3,5.7c0.6,2.2,0.9,4.6,0.9,7.3v29.4
	c-0.7,0.1-1.7,0.3-3,0.5c-1.3,0.2-2.8,0.4-4.4,0.6c-1.6,0.2-3.4,0.3-5.3,0.5c-1.9,0.1-3.8,0.2-5.7,0.2c-2.7,0-5.1-0.3-7.3-0.8
	c-2.2-0.5-4.2-1.4-5.8-2.6c-1.6-1.2-2.9-2.7-3.8-4.7c-0.9-1.9-1.4-4.3-1.4-7c0-2.6,0.5-4.8,1.6-6.7c1.1-1.9,2.5-3.4,4.3-4.5
	c1.8-1.1,3.9-2,6.3-2.5c2.4-0.5,4.9-0.8,7.6-0.8c0.8,0,1.7,0,2.6,0.1c0.9,0.1,1.8,0.2,2.6,0.4c0.8,0.2,1.5,0.3,2.1,0.4
	c0.6,0.1,1,0.2,1.3,0.3v-2.4c0-1.4-0.2-2.8-0.5-4.1c-0.3-1.4-0.8-2.6-1.6-3.6c-0.8-1.1-1.9-1.9-3.2-2.5c-1.4-0.6-3.1-0.9-5.3-0.9
	c-2.8,0-5.2,0.2-7.3,0.6c-2.1,0.4-3.6,0.8-4.7,1.2l-1-7c1.1-0.5,2.9-1,5.4-1.4S333.2,26.3,336.2,26.3z M336.9,68.5
	c2,0,3.8,0,5.3-0.1c1.5-0.1,2.8-0.3,3.8-0.5v-14c-0.6-0.3-1.6-0.6-2.9-0.8c-1.4-0.2-3-0.3-4.9-0.3c-1.3,0-2.6,0.1-4,0.3
	c-1.4,0.2-2.7,0.6-3.9,1.1c-1.2,0.6-2.2,1.4-2.9,2.4s-1.2,2.3-1.2,3.9c0,3,1,5.1,2.9,6.3C331,67.9,333.6,68.5,336.9,68.5z"/>
<g>
</g>
<g>
</g>
<g>
</g>
<g>
</g>
<g>
</g>
<g>
</g>
</svg>
