<svg aria-label="Bayerischer Rundfunk" role="img" viewBox="0 0 390.4 307.4"
  xmlns="http://www.w3.org/2000/svg">
  <title>Bayerischer Rundfunk</title>
  <path fill="#ffffff" d="M282.9 158c34.9-12.1 59.8-39.8 59.8-81.1 0-10.4-5.2-35.5-24.2-51.6C306 14.6 287.9 2 229.4.6c-12.1-.3-48.8 1-48.8 1v2.1c10.4 7.9 21.5 21.1 26.9 36.2 5.6-.2 14-.6 22.4-.2 23.5 1.3 33.7 5.6 44.3 14s16.3 22.7 16.3 35.7c-.1 17.8-8.5 36.1-34.1 46.6-20.7 8.4-45.8 10.3-45.8 10.3v6.5s15 7.2 30 27c12.9 17.1 88 127.6 88 127.6h62c-.2-.1-100.4-139.7-107.7-149.4zm-136.4-15.6c23.8-14.1 39.1-34.8 39.1-65.7C185.6 43.7 166 0 83.9 0 44.2 0 0 1.5 0 1.5v305.9h70.1c89.1 0 136.2-32.9 136.2-95 0-37-23.2-61.5-59.8-70zM84.4 264.7H49.7V39.4c.5 0 15.6-.2 25-.2 38.8 0 60.3 20.1 60.9 47.6.4 16.7-4.6 32.8-21.6 44.5-13.9 9.6-33.3 12.5-33.3 12.5v7.2s26.9 4 40.5 10.4c25.4 11.9 33 30.3 33.1 54.1.3 37.7-36.1 49.2-69.9 49.2z"></path>
</svg>
