<svg xmlns="http://www.w3.org/2000/svg" viewBox="0 0 60 60" width="60" height="60"><path d="M0 0h60v60H0V0z" fill="#292d3b"/><path d="M0 55h60v5H0v-5z" fill="#009dd4"/><g fill="#ffffff"><path d="M18.1 17.8c-.2-.1-.4-.1-.6-.2.3-.2.6-.4.9-.7 3.3-2.5 3.2-8.4-1.3-10.2-.7-.3-1.4-.6-2.2-.7-3.3-.3-5.7-.1-9.4-.1v25.4H12c2.2 0 4.3-.3 6.3-1.3 2.3-1.1 3.6-2.9 4-5.4.5-3.3-1.1-5.9-4.2-6.8zm-2 9c-.7.4-1.4.6-2.2.7-1.5.2-3.4.2-4.4.3V9.1c2 0 3.5-.3 5.2.8 2.6 1.6 2.2 5.4-.5 7-.8.4-1.8.7-2.8 1v.4c1 .2 2.2.4 3.1.7 1.6.5 2.9 1.5 3.3 3.3.1.6.2 1.2.2 1.8-.1 1.1-.7 2.1-1.9 2.7z"/><path d="M22.4 9.1c-.5-1.3-1.3-2.2-2.3-3.1 0-.1.1-.1.1-.1 2.7-.1 5.3-.3 7.9.3 2.2.5 3.9 1.6 4.9 3.6 1.3 2.9.2 6.2-2.5 8-.6.4-1.3.7-1.9 1.1 3 4 5.9 8.2 8.9 12.3h-5.1c-.1-.1-.2-.3-.3-.5-2.1-3.1-4.2-6.1-6.3-9.2-.4-.6-.9-1.2-1.4-1.8-.5-.5-1.1-1-1.8-1.5V18c.9-.2 1.8-.3 2.6-.5.7-.2 1.4-.4 2-.8 1.5-.8 2.2-2.2 2.1-3.8-.2-1.8-1.2-3-2.9-3.3-1.1-.3-2.2-.3-3.3-.4.1-.1-.7-.1-.7-.1z"/></g><path d="M53.6 18.2h-2.4v-3h-5c-.1-.7-.2-1.3-.4-1.9 1.6-2.5 3.2-5 4.7-7.5h3V13h1.8v2.2h-1.8c.1 1 .1 2 .1 3zm-5.4-5.1h3.1V8.2c-1.1 1.7-2 3.3-3.1 4.9zM37.4 16c1.3-1.3 3.1-3.1 3.9-4.6.2-.4.4-1 .5-1.5.2-1.4-.7-2.3-2.1-2.1-.6.1-1.3.4-2 .6-.1-.7-.2-1.3-.3-2.1.6-.2.9-.3 1.4-.4.9-.2 1.9-.3 2.8-.2 2.1.2 3.3 2.1 2.9 4.3-.3 1.2-.9 2.3-1.7 3.2-.6.8-1.3 1.6-2 2.5-.1.1-.1.2-.2.3h4.2v2.2h-7.5l.1-2.2z" fill="#009dd4"/></svg>
